<svg width="1400" height="980" viewBox="0 0 1400 980" fill="none" xmlns="http://www.w3.org/2000/svg">
  <rect width="1400" height="980" rx="40" fill="#F5FAF2"/>
  <defs>
    <linearGradient id="deliveryBackdrop" x1="196" y1="170" x2="1220" y2="824" gradientUnits="userSpaceOnUse">
      <stop stop-color="#FFFFFF"/>
      <stop offset="1" stop-color="#EEF7E8"/>
    </linearGradient>
  </defs>
  <circle cx="1180" cy="196" r="128" fill="#C8E6A0" fill-opacity="0.42"/>
  <circle cx="214" cy="744" r="146" fill="#DDEFD0"/>
  <rect x="132" y="162" width="1136" height="656" rx="40" fill="url(#deliveryBackdrop)" stroke="#DCE8DA" stroke-width="4"/>
  <rect x="206" y="256" width="420" height="362" rx="34" fill="#FFFFFF"/>
  <circle cx="368" cy="382" r="86" fill="#D9ECCB"/>
  <circle cx="368" cy="366" r="64" fill="#F0C6A8"/>
  <path d="M318 364C324 320 352 286 390 286C430 286 456 320 462 364C434 340 404 330 388 330C370 330 344 340 318 364Z" fill="#224D40"/>
  <path d="M280 598C300 522 346 480 394 480C448 480 490 526 506 598" stroke="#1B4D3E" stroke-width="28" stroke-linecap="round"/>
  <rect x="520" y="314" width="282" height="170" rx="28" fill="#1B4D3E"/>
  <rect x="554" y="346" width="214" height="106" rx="22" fill="#D7EBC8"/>
  <path d="M662 364V432M628 398H696" stroke="#1B4D3E" stroke-width="14" stroke-linecap="round"/>
  <path d="M654 484L692 548" stroke="#1B4D3E" stroke-width="16" stroke-linecap="round"/>
  <circle cx="702" cy="564" r="26" fill="#1B4D3E"/>
  <circle cx="554" cy="564" r="26" fill="#1B4D3E"/>
  <rect x="870" y="260" width="250" height="336" rx="34" fill="#E7F3DC"/>
  <rect x="910" y="314" width="170" height="228" rx="28" fill="#FFFFFF"/>
  <rect x="952" y="356" width="86" height="86" rx="20" fill="#C8E6A0"/>
  <path d="M995 374V424M971 399H1019" stroke="#1B4D3E" stroke-width="12" stroke-linecap="round"/>
  <rect x="118" y="694" width="1164" height="86" rx="28" fill="#1B4D3E" fill-opacity="0.08"/>
  <rect x="948" y="630" width="194" height="56" rx="20" fill="#FFFFFF"/>
  <rect x="974" y="652" width="86" height="12" rx="6" fill="#1B4D3E" fill-opacity="0.16"/>
  <rect x="974" y="672" width="132" height="10" rx="5" fill="#1B4D3E" fill-opacity="0.10"/>
</svg>
