<svg width="1400" height="980" viewBox="0 0 1400 980" fill="none" xmlns="http://www.w3.org/2000/svg"><rect width="1400" height="980" rx="40" fill="#F7FBF4"/><rect x="132" y="184" width="1136" height="612" rx="36" fill="#FFFFFF" stroke="#E5E5E5" stroke-width="4"/><circle cx="282" cy="286" r="84" fill="#C8E6A0" fill-opacity="0.65"/><circle cx="1122" cy="694" r="96" fill="#C8E6A0" fill-opacity="0.4"/><rect x="230" y="304" width="420" height="320" rx="28" fill="#1B4D3E" fill-opacity="0.08"/><rect x="714" y="274" width="382" height="224" rx="28" fill="#F7FBF4"/><rect x="714" y="530" width="382" height="162" rx="28" fill="#F7FBF4"/><circle cx="394" cy="404" r="60" fill="#1B4D3E"/><circle cx="514" cy="454" r="52" fill="#1B4D3E" fill-opacity="0.88"/><circle cx="322" cy="498" r="50" fill="#1B4D3E" fill-opacity="0.82"/><path d="M318 598C334 548 370 526 392 526C418 526 456 550 470 598" stroke="#1B4D3E" stroke-width="22" stroke-linecap="round"/><path d="M454 622C470 574 500 552 518 552C542 552 574 576 586 622" stroke="#1B4D3E" stroke-width="20" stroke-linecap="round"/><path d="M250 630C264 584 292 566 314 566C334 566 362 586 374 630" stroke="#1B4D3E" stroke-width="18" stroke-linecap="round"/></svg>
