<svg width="1200" height="760" viewBox="0 0 1200 760" fill="none" xmlns="http://www.w3.org/2000/svg"><rect width="1200" height="760" rx="40" fill="#134737"/><circle cx="956" cy="176" r="140" fill="#C8E6A0" fill-opacity="0.22"/><circle cx="280" cy="628" r="120" fill="#C8E6A0" fill-opacity="0.16"/><rect x="198" y="178" width="804" height="404" rx="36" fill="#FFFFFF" fill-opacity="0.1"/><rect x="286" y="254" width="214" height="308" rx="28" fill="#FFFFFF" fill-opacity="0.12"/><circle cx="392" cy="364" r="60" fill="#C8E6A0"/><path d="M392 324C368 324 348 344 348 368C348 393 368 412 392 412C416 412 436 393 436 368C436 344 416 324 392 324Z" fill="#1B4D3E"/><rect x="586" y="286" width="280" height="26" rx="13" fill="#FFFFFF" fill-opacity="0.18"/><rect x="586" y="338" width="212" height="18" rx="9" fill="#FFFFFF" fill-opacity="0.14"/><rect x="586" y="380" width="248" height="18" rx="9" fill="#FFFFFF" fill-opacity="0.14"/><rect x="586" y="448" width="156" height="56" rx="28" fill="#C8E6A0"/></svg>
