<svg width="1200" height="760" viewBox="0 0 1200 760" fill="none" xmlns="http://www.w3.org/2000/svg">
  <rect width="1200" height="760" rx="40" fill="#164638"/>
  <circle cx="962" cy="178" r="142" fill="#C8E6A0" fill-opacity="0.24"/>
  <circle cx="278" cy="622" r="128" fill="#C8E6A0" fill-opacity="0.14"/>
  <rect x="170" y="156" width="860" height="448" rx="38" fill="#FFFFFF" fill-opacity="0.10"/>
  <rect x="252" y="234" width="232" height="292" rx="30" fill="#FFFFFF"/>
  <circle cx="368" cy="316" r="54" fill="#D8ECCB"/>
  <circle cx="368" cy="304" r="40" fill="#F0C7AA"/>
  <path d="M336 304C340 276 360 254 386 254C414 254 432 276 436 304C416 286 396 280 384 280C372 280 352 286 336 304Z" fill="#173B31"/>
  <path d="M312 496C326 444 358 410 394 410C432 410 462 446 472 496" stroke="#1B4D3E" stroke-width="18" stroke-linecap="round"/>
  <rect x="560" y="246" width="378" height="150" rx="28" fill="#FFFFFF" fill-opacity="0.12"/>
  <rect x="596" y="286" width="220" height="20" rx="10" fill="#FFFFFF" fill-opacity="0.72"/>
  <rect x="596" y="330" width="182" height="16" rx="8" fill="#FFFFFF" fill-opacity="0.32"/>
  <rect x="596" y="364" width="210" height="16" rx="8" fill="#FFFFFF" fill-opacity="0.24"/>
  <rect x="560" y="436" width="246" height="104" rx="26" fill="#C8E6A0"/>
  <path d="M626 490H740" stroke="#164638" stroke-width="10" stroke-linecap="round"/>
  <path d="M682 450V530" stroke="#164638" stroke-width="10" stroke-linecap="round"/>
  <rect x="844" y="440" width="124" height="100" rx="24" fill="#FFFFFF"/>
  <circle cx="906" cy="474" r="20" fill="#1B4D3E"/>
  <path d="M906 464V484M896 474H916" stroke="#C8E6A0" stroke-width="5" stroke-linecap="round"/>
  <rect x="876" y="510" width="60" height="10" rx="5" fill="#1B4D3E" fill-opacity="0.16"/>
</svg>
