<svg width="1600" height="980" viewBox="0 0 1600 980" fill="none" xmlns="http://www.w3.org/2000/svg"><rect width="1600" height="980" rx="44" fill="#F7FBF4"/><circle cx="1240" cy="176" r="156" fill="#C8E6A0" fill-opacity="0.42"/><circle cx="250" cy="760" r="130" fill="#C8E6A0" fill-opacity="0.24"/><rect x="140" y="204" width="540" height="560" rx="36" fill="#FFFFFF" stroke="#E5E5E5" stroke-width="4"/><rect x="208" y="280" width="404" height="260" rx="30" fill="#1B4D3E" fill-opacity="0.08"/><circle cx="410" cy="388" r="76" fill="#C8E6A0"/><path d="M410 334C380 334 356 358 356 388C356 419 380 444 410 444C440 444 464 419 464 388C464 358 440 334 410 334Z" fill="#1B4D3E"/><rect x="780" y="236" width="666" height="488" rx="40" fill="#FFFFFF" stroke="#E5E5E5" stroke-width="4"/><rect x="846" y="310" width="238" height="126" rx="24" fill="#F7FBF4"/><rect x="1122" y="310" width="252" height="126" rx="24" fill="#F7FBF4"/><rect x="846" y="476" width="528" height="178" rx="28" fill="#1B4D3E" fill-opacity="0.07"/><circle cx="982" cy="562" r="68" fill="#1B4D3E"/><circle cx="1192" cy="562" r="68" fill="#C8E6A0"/></svg>
