<svg width="1600" height="980" viewBox="0 0 1600 980" fill="none" xmlns="http://www.w3.org/2000/svg">
  <rect width="1600" height="980" rx="44" fill="#F3F8F1"/>
  <defs>
    <linearGradient id="irelandHeroPanel" x1="960" y1="180" x2="1400" y2="760" gradientUnits="userSpaceOnUse">
      <stop stop-color="#215946"/>
      <stop offset="1" stop-color="#163C31"/>
    </linearGradient>
    <linearGradient id="irelandHeroSoft" x1="230" y1="160" x2="660" y2="820" gradientUnits="userSpaceOnUse">
      <stop stop-color="#FFFFFF"/>
      <stop offset="1" stop-color="#EEF5EA"/>
    </linearGradient>
  </defs>
  <circle cx="1338" cy="184" r="168" fill="#C8E6A0" fill-opacity="0.52"/>
  <circle cx="236" cy="786" r="188" fill="#DDEFD0"/>
  <rect x="120" y="148" width="590" height="684" rx="42" fill="url(#irelandHeroSoft)" stroke="#DCE8DA" stroke-width="4"/>
  <rect x="168" y="196" width="492" height="586" rx="34" fill="#FFFFFF"/>
  <rect x="198" y="226" width="432" height="302" rx="28" fill="#F4FAF0"/>
  <path d="M248 462C274 382 332 344 392 344C452 344 494 382 530 462" fill="#D7EAC7"/>
  <circle cx="386" cy="316" r="76" fill="#E5F2D8"/>
  <circle cx="382" cy="308" r="58" fill="#B77752"/>
  <path d="M328 312C336 266 366 234 406 234C446 234 474 266 480 312C451 286 420 274 402 274C382 274 352 286 328 312Z" fill="#214C40"/>
  <rect x="300" y="470" width="184" height="160" rx="28" fill="#214C40"/>
  <path d="M338 552C354 520 384 496 416 496C454 496 482 524 492 552" stroke="#C8E6A0" stroke-width="24" stroke-linecap="round"/>
  <rect x="492" y="274" width="96" height="112" rx="22" fill="#214C40"/>
  <path d="M540 298V362M508 330H572" stroke="#C8E6A0" stroke-width="16" stroke-linecap="round"/>
  <rect x="224" y="574" width="170" height="16" rx="8" fill="#214C40" fill-opacity="0.16"/>
  <rect x="224" y="612" width="260" height="14" rx="7" fill="#214C40" fill-opacity="0.10"/>
  <rect x="224" y="646" width="220" height="14" rx="7" fill="#214C40" fill-opacity="0.10"/>
  <rect x="772" y="188" width="700" height="600" rx="44" fill="url(#irelandHeroPanel)"/>
  <circle cx="1290" cy="322" r="146" fill="#3E725B"/>
  <circle cx="960" cy="692" r="120" fill="#2A5F4C"/>
  <rect x="856" y="258" width="182" height="48" rx="24" fill="#FFFFFF" fill-opacity="0.14"/>
  <rect x="856" y="334" width="280" height="18" rx="9" fill="#FFFFFF" fill-opacity="0.20"/>
  <rect x="856" y="372" width="246" height="18" rx="9" fill="#FFFFFF" fill-opacity="0.12"/>
  <rect x="856" y="410" width="210" height="18" rx="9" fill="#FFFFFF" fill-opacity="0.12"/>
  <rect x="1160" y="302" width="238" height="246" rx="30" fill="#F3F8F1"/>
  <rect x="1186" y="332" width="186" height="108" rx="24" fill="#DCEFD0"/>
  <path d="M1226 386H1332" stroke="#215946" stroke-width="10" stroke-linecap="round"/>
  <path d="M1279 350V422" stroke="#215946" stroke-width="10" stroke-linecap="round"/>
  <circle cx="1034" cy="514" r="104" fill="#F2D1B7"/>
  <path d="M952 478C964 412 1008 374 1062 374C1118 374 1160 416 1166 478C1128 444 1086 430 1058 430C1030 430 988 444 952 478Z" fill="#0E2E28"/>
  <path d="M950 660C970 584 1022 544 1078 544C1138 544 1184 584 1196 660" fill="#FFFFFF"/>
  <path d="M938 648C970 594 1020 566 1078 566C1142 566 1188 596 1218 648" stroke="#FFFFFF" stroke-width="26" stroke-linecap="round"/>
  <rect x="1126" y="626" width="182" height="72" rx="26" fill="#FFFFFF" fill-opacity="0.18"/>
  <circle cx="1174" cy="662" r="20" fill="#C8E6A0"/>
  <path d="M1174 650V674M1162 662H1186" stroke="#215946" stroke-width="6" stroke-linecap="round"/>
  <rect x="1208" y="652" width="70" height="12" rx="6" fill="#FFFFFF" fill-opacity="0.6"/>
</svg>
