<svg width="1600" height="980" viewBox="0 0 1600 980" fill="none" xmlns="http://www.w3.org/2000/svg"><rect width="1600" height="980" rx="44" fill="#F7FBF4"/><circle cx="1328" cy="210" r="160" fill="#C8E6A0" fill-opacity="0.45"/><rect x="150" y="190" width="560" height="590" rx="36" fill="#FFFFFF" stroke="#E5E5E5" stroke-width="4"/><rect x="218" y="260" width="424" height="336" rx="28" fill="#1B4D3E"/><rect x="246" y="286" width="368" height="284" rx="22" fill="#E7F4D1"/><circle cx="430" cy="396" r="82" fill="#1B4D3E" fill-opacity="0.12"/><path d="M430 348C399 348 374 373 374 404C374 436 399 462 430 462C461 462 486 436 486 404C486 373 461 348 430 348Z" fill="#1B4D3E"/><rect x="770" y="250" width="680" height="510" rx="40" fill="#FFFFFF" stroke="#E5E5E5" stroke-width="4"/><circle cx="1146" cy="418" r="96" fill="#C8E6A0"/><path d="M1146 346C1108 346 1078 376 1078 414V422C1078 460 1108 490 1146 490C1184 490 1214 460 1214 422V414C1214 376 1184 346 1146 346Z" fill="#1B4D3E"/><path d="M1058 620C1078 558 1124 528 1146 528C1172 528 1218 560 1234 620" stroke="#1B4D3E" stroke-width="24" stroke-linecap="round"/><rect x="848" y="314" width="182" height="34" rx="17" fill="#F7FBF4"/><rect x="848" y="370" width="230" height="16" rx="8" fill="#1B4D3E" fill-opacity="0.16"/><rect x="848" y="404" width="208" height="16" rx="8" fill="#1B4D3E" fill-opacity="0.12"/><rect x="848" y="438" width="182" height="16" rx="8" fill="#1B4D3E" fill-opacity="0.12"/></svg>
